<svg xmlns="http://www.w3.org/2000/svg" xmlns:xlink="http://www.w3.org/1999/xlink" width="820" zoomAndPan="magnify" viewBox="0 0 615 233.999995" height="312" preserveAspectRatio="xMidYMid meet" version="1.0"><defs><clipPath id="80185672c5"><path d="M 199 12.171875 L 613 12.171875 L 613 137 L 199 137 Z M 199 12.171875 " clip-rule="nonzero"/></clipPath><clipPath id="5b00699b3d"><path d="M 2.25 29 L 161 29 L 161 145 L 2.25 145 Z M 2.25 29 " clip-rule="nonzero"/></clipPath><clipPath id="abc2ec6f03"><path d="M 2.25 113 L 85 113 L 85 187 L 2.25 187 Z M 2.25 113 " clip-rule="nonzero"/></clipPath></defs><g clip-path="url(#80185672c5)"><path fill="#ffffff" d="M 219.238281 90.167969 L 245.289062 90.167969 L 245.289062 105.519531 L 199.351562 105.519531 L 199.351562 23.875 L 219.238281 23.875 Z M 264.777344 33.878906 C 261.289062 33.878906 258.417969 32.871094 256.171875 30.855469 C 254 28.761719 252.914062 26.203125 252.914062 23.179688 C 252.914062 20.078125 254 17.519531 256.171875 15.503906 C 258.417969 13.410156 261.289062 12.363281 264.777344 12.363281 C 268.1875 12.363281 270.980469 13.410156 273.152344 15.503906 C 275.398438 17.519531 276.523438 20.078125 276.523438 23.179688 C 276.523438 26.203125 275.398438 28.761719 273.152344 30.855469 C 270.980469 32.871094 268.1875 33.878906 264.777344 33.878906 Z M 274.664062 40.625 L 274.664062 105.519531 L 254.773438 105.519531 L 254.773438 40.625 Z M 308.960938 49.8125 C 310.824219 46.789062 313.5 44.34375 316.988281 42.484375 C 320.476562 40.625 324.46875 39.695312 328.964844 39.695312 C 334.316406 39.695312 339.160156 41.050781 343.503906 43.765625 C 347.84375 46.476562 351.257812 50.355469 353.738281 55.394531 C 356.296875 60.433594 357.578125 66.289062 357.578125 72.957031 C 357.578125 79.625 356.296875 85.515625 353.738281 90.632812 C 351.257812 95.671875 347.84375 99.589844 343.503906 102.378906 C 339.160156 105.09375 334.316406 106.449219 328.964844 106.449219 C 324.390625 106.449219 320.398438 105.558594 316.988281 103.777344 C 313.574219 101.914062 310.898438 99.472656 308.960938 96.449219 L 308.960938 105.519531 L 289.074219 105.519531 L 289.074219 19.457031 L 308.960938 19.457031 Z M 337.339844 72.957031 C 337.339844 67.992188 335.945312 64.117188 333.152344 61.324219 C 330.4375 58.457031 327.066406 57.023438 323.035156 57.023438 C 319.082031 57.023438 315.707031 58.457031 312.917969 61.324219 C 310.203125 64.195312 308.847656 68.109375 308.847656 73.070312 C 308.847656 78.035156 310.203125 81.949219 312.917969 84.820312 C 315.707031 87.6875 319.082031 89.121094 323.035156 89.121094 C 326.988281 89.121094 330.363281 87.6875 333.152344 84.820312 C 335.945312 81.871094 337.339844 77.917969 337.339844 72.957031 Z M 387.898438 51.441406 C 390.222656 47.875 393.128906 45.082031 396.621094 43.066406 C 400.109375 40.972656 403.984375 39.925781 408.25 39.925781 L 408.25 60.976562 L 402.785156 60.976562 C 397.820312 60.976562 394.097656 62.0625 391.617188 64.234375 C 389.136719 66.328125 387.898438 70.046875 387.898438 75.398438 L 387.898438 105.519531 L 368.007812 105.519531 L 368.007812 40.625 L 387.898438 40.625 Z M 413.800781 72.957031 C 413.800781 66.289062 415.042969 60.433594 417.523438 55.394531 C 420.082031 50.355469 423.53125 46.476562 427.875 43.765625 C 432.214844 41.050781 437.0625 39.695312 442.410156 39.695312 C 446.984375 39.695312 450.976562 40.625 454.390625 42.484375 C 457.878906 44.34375 460.554688 46.789062 462.414062 49.8125 L 462.414062 40.625 L 482.304688 40.625 L 482.304688 105.519531 L 462.414062 105.519531 L 462.414062 96.332031 C 460.476562 99.355469 457.765625 101.796875 454.273438 103.660156 C 450.863281 105.519531 446.871094 106.449219 442.296875 106.449219 C 437.023438 106.449219 432.214844 105.09375 427.875 102.378906 C 423.53125 99.589844 420.082031 95.671875 417.523438 90.632812 C 415.042969 85.515625 413.800781 79.625 413.800781 72.957031 Z M 462.414062 73.070312 C 462.414062 68.109375 461.019531 64.195312 458.230469 61.324219 C 455.515625 58.457031 452.179688 57.023438 448.226562 57.023438 C 444.273438 57.023438 440.898438 58.457031 438.109375 61.324219 C 435.394531 64.117188 434.039062 67.992188 434.039062 72.957031 C 434.039062 77.917969 435.394531 81.871094 438.109375 84.820312 C 440.898438 87.6875 444.273438 89.121094 448.226562 89.121094 C 452.179688 89.121094 455.515625 87.6875 458.230469 84.820312 C 461.019531 81.949219 462.414062 78.035156 462.414062 73.070312 Z M 516.578125 51.441406 C 518.90625 47.875 521.8125 45.082031 525.300781 43.066406 C 528.789062 40.972656 532.667969 39.925781 536.929688 39.925781 L 536.929688 60.976562 L 531.464844 60.976562 C 526.503906 60.976562 522.78125 62.0625 520.300781 64.234375 C 517.816406 66.328125 516.578125 70.046875 516.578125 75.398438 L 516.578125 105.519531 L 496.691406 105.519531 L 496.691406 40.625 L 516.578125 40.625 Z M 612.726562 40.625 L 572.023438 136.339844 L 550.621094 136.339844 L 565.507812 103.308594 L 539.109375 40.625 L 561.324219 40.625 L 576.324219 81.214844 L 591.210938 40.625 Z M 612.726562 40.625 " fill-opacity="1" fill-rule="nonzero"/></g><path fill="#ffffff" d="M 222.167969 149.960938 L 222.167969 153.507812 L 203.316406 153.507812 L 203.316406 169.484375 L 219.230469 169.484375 L 219.230469 173.035156 L 203.316406 173.035156 L 203.316406 192.746094 L 199.03125 192.746094 L 199.03125 149.960938 Z M 243.847656 193.234375 C 240.703125 193.234375 237.867188 192.542969 235.335938 191.15625 C 232.847656 189.726562 230.867188 187.726562 229.398438 185.15625 C 227.972656 182.542969 227.257812 179.503906 227.257812 176.035156 C 227.257812 172.566406 227.992188 169.546875 229.460938 166.976562 C 230.929688 164.363281 232.929688 162.363281 235.460938 160.976562 C 237.992188 159.550781 240.828125 158.835938 243.96875 158.835938 C 247.113281 158.835938 249.945312 159.550781 252.476562 160.976562 C 255.046875 162.363281 257.046875 164.363281 258.476562 166.976562 C 259.945312 169.546875 260.679688 172.566406 260.679688 176.035156 C 260.679688 179.464844 259.945312 182.480469 258.476562 185.09375 C 257.007812 187.707031 254.984375 189.726562 252.414062 191.15625 C 249.84375 192.542969 246.988281 193.234375 243.847656 193.234375 Z M 243.847656 189.5 C 246.050781 189.5 248.089844 189.011719 249.96875 188.03125 C 251.84375 187.011719 253.355469 185.503906 254.496094 183.503906 C 255.679688 181.464844 256.273438 178.972656 256.273438 176.035156 C 256.273438 173.097656 255.699219 170.628906 254.558594 168.628906 C 253.417969 166.589844 251.90625 165.078125 250.027344 164.097656 C 248.152344 163.078125 246.109375 162.570312 243.90625 162.570312 C 241.703125 162.570312 239.664062 163.078125 237.785156 164.097656 C 235.910156 165.078125 234.398438 166.589844 233.257812 168.628906 C 232.15625 170.628906 231.605469 173.097656 231.605469 176.035156 C 231.605469 178.972656 232.15625 181.464844 233.257812 183.503906 C 234.398438 185.503906 235.886719 187.011719 237.726562 188.03125 C 239.601562 189.011719 241.640625 189.5 243.847656 189.5 Z M 297.441406 159.324219 L 297.441406 192.746094 L 293.15625 192.746094 L 293.15625 186.871094 C 292.179688 188.949219 290.667969 190.542969 288.628906 191.644531 C 286.589844 192.746094 284.304688 193.296875 281.773438 193.296875 C 277.773438 193.296875 274.507812 192.074219 271.976562 189.625 C 269.449219 187.132812 268.183594 183.542969 268.183594 178.851562 L 268.183594 159.324219 L 272.40625 159.324219 L 272.40625 178.363281 C 272.40625 181.992188 273.304688 184.769531 275.101562 186.6875 C 276.9375 188.605469 279.425781 189.5625 282.566406 189.5625 C 285.792969 189.5625 288.363281 188.542969 290.28125 186.503906 C 292.199219 184.460938 293.15625 181.464844 293.15625 177.503906 L 293.15625 159.324219 Z M 322.894531 158.710938 C 326.894531 158.710938 330.160156 159.957031 332.6875 162.445312 C 335.21875 164.894531 336.484375 168.464844 336.484375 173.160156 L 336.484375 192.746094 L 332.261719 192.746094 L 332.261719 173.648438 C 332.261719 170.015625 331.34375 167.242188 329.507812 165.324219 C 327.710938 163.40625 325.242188 162.445312 322.101562 162.445312 C 318.875 162.445312 316.304688 163.464844 314.386719 165.507812 C 312.46875 167.546875 311.511719 170.546875 311.511719 174.503906 L 311.511719 192.746094 L 307.226562 192.746094 L 307.226562 159.324219 L 311.511719 159.324219 L 311.511719 165.015625 C 312.570312 162.976562 314.101562 161.425781 316.101562 160.367188 C 318.101562 159.261719 320.367188 158.710938 322.894531 158.710938 Z M 344 175.972656 C 344 172.546875 344.695312 169.546875 346.082031 166.976562 C 347.46875 164.363281 349.367188 162.363281 351.773438 160.976562 C 354.222656 159.550781 356.976562 158.835938 360.039062 158.835938 C 362.976562 158.835938 365.628906 159.550781 367.996094 160.976562 C 370.363281 162.40625 372.097656 164.261719 373.199219 166.546875 L 373.199219 147.449219 L 377.484375 147.449219 L 377.484375 192.746094 L 373.199219 192.746094 L 373.199219 185.277344 C 372.179688 187.605469 370.503906 189.523438 368.179688 191.03125 C 365.855469 192.5 363.121094 193.234375 359.976562 193.234375 C 356.917969 193.234375 354.164062 192.519531 351.714844 191.09375 C 349.304688 189.664062 347.410156 187.644531 346.019531 185.035156 C 344.675781 182.421875 344 179.402344 344 175.972656 Z M 373.199219 176.035156 C 373.199219 173.34375 372.648438 170.976562 371.546875 168.933594 C 370.445312 166.894531 368.933594 165.324219 367.015625 164.222656 C 365.140625 163.121094 363.058594 162.570312 360.773438 162.570312 C 358.40625 162.570312 356.285156 163.097656 354.40625 164.160156 C 352.53125 165.222656 351.039062 166.773438 349.9375 168.8125 C 348.878906 170.8125 348.347656 173.199219 348.347656 175.972656 C 348.347656 178.707031 348.878906 181.117188 349.9375 183.195312 C 351.039062 185.238281 352.53125 186.808594 354.40625 187.910156 C 356.285156 188.972656 358.40625 189.5 360.773438 189.5 C 363.058594 189.5 365.140625 188.949219 367.015625 187.847656 C 368.933594 186.746094 370.445312 185.175781 371.546875 183.136719 C 372.648438 181.097656 373.199219 178.730469 373.199219 176.035156 Z M 417.503906 174.320312 C 417.503906 175.789062 417.464844 176.914062 417.382812 177.6875 L 389.652344 177.6875 C 389.777344 180.21875 390.386719 182.382812 391.492188 184.175781 C 392.59375 185.972656 394.039062 187.339844 395.835938 188.277344 C 397.632812 189.175781 399.589844 189.625 401.710938 189.625 C 404.488281 189.625 406.8125 188.949219 408.691406 187.605469 C 410.609375 186.257812 411.875 184.441406 412.484375 182.15625 L 417.015625 182.15625 C 416.199219 185.421875 414.445312 188.09375 411.75 190.175781 C 409.097656 192.214844 405.753906 193.234375 401.710938 193.234375 C 398.570312 193.234375 395.753906 192.542969 393.265625 191.15625 C 390.777344 189.726562 388.816406 187.726562 387.390625 185.15625 C 386 182.542969 385.308594 179.503906 385.308594 176.035156 C 385.308594 172.566406 386 169.527344 387.390625 166.914062 C 388.777344 164.304688 390.714844 162.304688 393.203125 160.917969 C 395.691406 159.527344 398.53125 158.835938 401.710938 158.835938 C 404.894531 158.835938 407.671875 159.527344 410.039062 160.917969 C 412.445312 162.304688 414.28125 164.179688 415.546875 166.546875 C 416.851562 168.875 417.503906 171.464844 417.503906 174.320312 Z M 413.160156 174.199219 C 413.199219 171.710938 412.6875 169.589844 411.628906 167.832031 C 410.609375 166.078125 409.199219 164.753906 407.40625 163.855469 C 405.609375 162.957031 403.648438 162.507812 401.527344 162.507812 C 398.347656 162.507812 395.632812 163.527344 393.386719 165.566406 C 391.144531 167.609375 389.898438 170.484375 389.652344 174.199219 Z M 423.382812 175.972656 C 423.382812 172.546875 424.078125 169.546875 425.464844 166.976562 C 426.855469 164.363281 428.75 162.363281 431.160156 160.976562 C 433.605469 159.550781 436.359375 158.835938 439.421875 158.835938 C 442.359375 158.835938 445.011719 159.550781 447.378906 160.976562 C 449.746094 162.40625 451.480469 164.261719 452.582031 166.546875 L 452.582031 147.449219 L 456.867188 147.449219 L 456.867188 192.746094 L 452.582031 192.746094 L 452.582031 185.277344 C 451.5625 187.605469 449.890625 189.523438 447.5625 191.03125 C 445.238281 192.5 442.503906 193.234375 439.359375 193.234375 C 436.300781 193.234375 433.546875 192.519531 431.097656 191.09375 C 428.691406 189.664062 426.792969 187.644531 425.40625 185.035156 C 424.058594 182.421875 423.382812 179.402344 423.382812 175.972656 Z M 452.582031 176.035156 C 452.582031 173.34375 452.03125 170.976562 450.929688 168.933594 C 449.828125 166.894531 448.320312 165.324219 446.398438 164.222656 C 444.523438 163.121094 442.441406 162.570312 440.15625 162.570312 C 437.789062 162.570312 435.667969 163.097656 433.789062 164.160156 C 431.914062 165.222656 430.421875 166.773438 429.320312 168.8125 C 428.261719 170.8125 427.730469 173.199219 427.730469 175.972656 C 427.730469 178.707031 428.261719 181.117188 429.320312 183.195312 C 430.421875 185.238281 431.914062 186.808594 433.789062 187.910156 C 435.667969 188.972656 437.789062 189.5 440.15625 189.5 C 442.441406 189.5 444.523438 188.949219 446.398438 187.847656 C 448.320312 186.746094 449.828125 185.175781 450.929688 183.136719 C 452.03125 181.097656 452.582031 178.730469 452.582031 176.035156 Z M 480.445312 152.714844 L 480.445312 148.859375 L 490.851562 148.859375 L 490.851562 192.746094 L 486.507812 192.746094 L 486.507812 152.714844 Z M 506.09375 181.054688 C 506.542969 183.707031 507.5625 185.746094 509.15625 187.175781 C 510.746094 188.605469 512.929688 189.316406 515.703125 189.316406 C 519.539062 189.316406 522.375 187.828125 524.214844 184.851562 C 526.089844 181.832031 526.945312 176.851562 526.785156 169.914062 C 526.007812 172.160156 524.519531 173.933594 522.316406 175.238281 C 520.152344 176.503906 517.664062 177.136719 514.847656 177.136719 C 510.5625 177.136719 507.113281 175.851562 504.503906 173.28125 C 501.933594 170.710938 500.648438 167.140625 500.648438 162.570312 C 500.648438 159.835938 501.175781 157.367188 502.238281 155.164062 C 503.296875 152.957031 504.910156 151.222656 507.074219 149.960938 C 509.234375 148.695312 511.886719 148.0625 515.03125 148.0625 C 520.824219 148.0625 524.863281 149.960938 527.152344 153.753906 C 529.4375 157.507812 530.578125 162.914062 530.578125 169.976562 C 530.578125 177.605469 529.4375 183.339844 527.152344 187.175781 C 524.90625 191.011719 521.03125 192.929688 515.519531 192.929688 C 511.480469 192.929688 508.339844 191.847656 506.09375 189.683594 C 503.851562 187.480469 502.523438 184.605469 502.117188 181.054688 Z M 515.519531 173.464844 C 517.4375 173.464844 519.195312 173.078125 520.785156 172.300781 C 522.417969 171.484375 523.722656 170.300781 524.703125 168.75 C 525.683594 167.199219 526.171875 165.34375 526.171875 163.179688 C 526.171875 159.835938 525.210938 157.082031 523.292969 154.917969 C 521.417969 152.753906 518.703125 151.671875 515.152344 151.671875 C 512.011719 151.671875 509.480469 152.652344 507.5625 154.613281 C 505.6875 156.570312 504.746094 159.183594 504.746094 162.445312 C 504.746094 165.875 505.6875 168.566406 507.5625 170.527344 C 509.441406 172.484375 512.09375 173.464844 515.519531 173.464844 Z M 544.351562 181.054688 C 544.800781 183.707031 545.820312 185.746094 547.414062 187.175781 C 549.003906 188.605469 551.1875 189.316406 553.960938 189.316406 C 557.796875 189.316406 560.632812 187.828125 562.46875 184.851562 C 564.347656 181.832031 565.203125 176.851562 565.039062 169.914062 C 564.265625 172.160156 562.777344 173.933594 560.574219 175.238281 C 558.410156 176.503906 555.921875 177.136719 553.105469 177.136719 C 548.820312 177.136719 545.371094 175.851562 542.761719 173.28125 C 540.1875 170.710938 538.902344 167.140625 538.902344 162.570312 C 538.902344 159.835938 539.433594 157.367188 540.496094 155.164062 C 541.554688 152.957031 543.167969 151.222656 545.332031 149.960938 C 547.492188 148.695312 550.144531 148.0625 553.289062 148.0625 C 559.082031 148.0625 563.121094 149.960938 565.410156 153.753906 C 567.691406 157.507812 568.835938 162.914062 568.835938 169.976562 C 568.835938 177.605469 567.691406 183.339844 565.410156 187.175781 C 563.164062 191.011719 559.289062 192.929688 553.777344 192.929688 C 549.738281 192.929688 546.59375 191.847656 544.351562 189.683594 C 542.105469 187.480469 540.78125 184.605469 540.371094 181.054688 Z M 553.777344 173.464844 C 555.695312 173.464844 557.449219 173.078125 559.042969 172.300781 C 560.671875 171.484375 561.980469 170.300781 562.960938 168.75 C 563.9375 167.199219 564.429688 165.34375 564.429688 163.179688 C 564.429688 159.835938 563.46875 157.082031 561.550781 154.917969 C 559.675781 152.753906 556.960938 151.671875 553.410156 151.671875 C 550.269531 151.671875 547.738281 152.652344 545.820312 154.613281 C 543.941406 156.570312 543.003906 159.183594 543.003906 162.445312 C 543.003906 165.875 543.941406 168.566406 545.820312 170.527344 C 547.695312 172.484375 550.351562 173.464844 553.777344 173.464844 Z M 604.582031 152.53125 L 582.179688 152.53125 L 582.179688 168.199219 C 583.199219 166.773438 584.691406 165.609375 586.648438 164.710938 C 588.605469 163.773438 590.726562 163.304688 593.015625 163.304688 C 596.359375 163.304688 599.09375 163.996094 601.21875 165.382812 C 603.335938 166.730469 604.867188 168.507812 605.808594 170.710938 C 606.746094 172.871094 607.214844 175.199219 607.214844 177.6875 C 607.214844 180.546875 606.664062 183.136719 605.5625 185.460938 C 604.5 187.746094 602.847656 189.5625 600.605469 190.910156 C 598.402344 192.257812 595.648438 192.929688 592.339844 192.929688 C 588.136719 192.929688 584.730469 191.847656 582.117188 189.683594 C 579.507812 187.480469 577.914062 184.523438 577.34375 180.808594 L 581.566406 180.808594 C 582.097656 183.503906 583.320312 185.585938 585.242188 187.054688 C 587.15625 188.523438 589.527344 189.257812 592.339844 189.257812 C 595.890625 189.257812 598.5625 188.214844 600.359375 186.136719 C 602.195312 184.011719 603.113281 181.21875 603.113281 177.75 C 603.113281 174.363281 602.195312 171.730469 600.359375 169.851562 C 598.523438 167.9375 595.890625 166.976562 592.464844 166.976562 C 590.097656 166.976562 588.015625 167.527344 586.21875 168.628906 C 584.421875 169.730469 583.097656 171.21875 582.242188 173.097656 L 578.203125 173.097656 L 578.203125 148.796875 L 604.582031 148.796875 Z M 604.582031 152.53125 " fill-opacity="1" fill-rule="nonzero"/><g clip-path="url(#5b00699b3d)"><path fill="#56682c" d="M 6.054688 87.886719 C 6.035156 87.992188 6.011719 88.105469 5.976562 88.214844 C 6.011719 88.105469 6.035156 87.992188 6.054688 87.886719 Z M 6.078125 87.753906 C 6.078125 87.953125 6.101562 88.628906 6.339844 89.546875 C 6.832031 91.394531 8.105469 93.070312 9.839844 94.125 L 77.8125 135.496094 C 77.695312 134.828125 77.648438 134.140625 77.648438 133.4375 C 77.648438 126.777344 80.53125 122.179688 87.296875 118.054688 L 152 78.652344 C 152.855469 78.128906 152.945312 77.269531 152.945312 76.921875 C 152.945312 76.574219 152.855469 75.714844 152 75.195312 L 83.273438 33.339844 L 13.824219 75.632812 C 8.183594 79.070312 6.089844 82.296875 6.089844 87.535156 C 6.089844 87.605469 6.085938 87.683594 6.078125 87.753906 Z M 86.542969 144.195312 C 85.121094 144.195312 83.746094 143.8125 82.472656 143.035156 C 82.214844 142.875 81.972656 142.714844 81.730469 142.523438 L 7.933594 97.597656 C 5.300781 96.007812 3.4375 93.523438 2.664062 90.625 C 2.289062 89.171875 2.210938 88.183594 2.277344 87.515625 C 2.28125 80.863281 5.164062 76.269531 11.925781 72.152344 L 82.324219 29.273438 C 82.910156 28.917969 83.632812 28.917969 84.222656 29.273438 L 153.90625 71.714844 C 155.695312 72.804688 156.757812 74.753906 156.757812 76.921875 C 156.757812 79.09375 155.695312 81.046875 153.90625 82.128906 L 89.203125 121.535156 C 83.554688 124.976562 81.460938 128.199219 81.460938 133.4375 C 81.460938 135.816406 82.390625 138.003906 83.878906 139.199219 C 83.90625 139.226562 83.949219 139.253906 83.980469 139.28125 C 84.109375 139.378906 84.242188 139.46875 84.378906 139.550781 C 85.890625 140.476562 87.6875 140.359375 89.5625 139.214844 L 155.007812 99.355469 L 149.691406 95.703125 C 148.8125 95.105469 148.566406 93.859375 149.136719 92.925781 C 149.714844 92 150.894531 91.734375 151.777344 92.34375 L 159.6875 97.777344 C 160.242188 98.160156 160.570312 98.820312 160.550781 99.519531 C 160.535156 100.21875 160.175781 100.855469 159.597656 101.203125 L 91.476562 142.695312 C 89.832031 143.699219 88.15625 144.195312 86.542969 144.195312 Z M 86.542969 144.195312 " fill-opacity="1" fill-rule="nonzero"/></g><path fill="#56682c" d="M 118.394531 169.511719 C 117.734375 169.511719 117.097656 169.152344 116.742188 168.507812 C 116.21875 167.550781 116.527344 166.316406 117.441406 165.761719 L 155.007812 142.878906 L 149.691406 139.234375 C 148.8125 138.625 148.566406 137.382812 149.136719 136.449219 C 149.714844 135.515625 150.894531 135.253906 151.777344 135.863281 L 159.6875 141.300781 C 160.242188 141.683594 160.570312 142.34375 160.550781 143.042969 C 160.535156 143.742188 160.175781 144.375 159.597656 144.726562 L 119.34375 169.242188 C 119.042969 169.433594 118.714844 169.511719 118.394531 169.511719 Z M 118.394531 169.511719 " fill-opacity="1" fill-rule="nonzero"/><g clip-path="url(#abc2ec6f03)"><path fill="#56682c" d="M 6.054688 131.414062 C 6.035156 131.523438 6.011719 131.628906 5.976562 131.730469 C 6.011719 131.628906 6.035156 131.523438 6.054688 131.414062 Z M 82.789062 186.386719 C 82.460938 186.386719 82.132812 186.296875 81.832031 186.117188 L 7.933594 141.128906 C 5.300781 139.527344 3.4375 137.046875 2.664062 134.140625 C 2.289062 132.695312 2.210938 131.714844 2.277344 131.039062 C 2.28125 124.398438 5.152344 119.804688 11.878906 115.699219 L 15.082031 113.507812 C 15.964844 112.902344 17.148438 113.164062 17.722656 114.09375 C 18.292969 115.03125 18.046875 116.273438 17.160156 116.878906 L 13.914062 119.101562 C 13.886719 119.121094 13.855469 119.136719 13.824219 119.15625 C 8.183594 122.59375 6.089844 125.820312 6.089844 131.054688 C 6.089844 131.128906 6.085938 131.199219 6.078125 131.277344 C 6.078125 131.46875 6.101562 132.15625 6.339844 133.066406 C 6.832031 134.925781 8.105469 136.589844 9.839844 137.644531 L 83.746094 182.632812 C 84.65625 183.1875 84.964844 184.417969 84.433594 185.375 C 84.085938 186.027344 83.441406 186.386719 82.789062 186.386719 Z M 82.789062 186.386719 " fill-opacity="1" fill-rule="nonzero"/></g><path fill="#56682c" d="M 105.378906 192.96875 C 105.054688 192.96875 104.726562 192.878906 104.441406 192.703125 C 103.84375 192.351562 103.472656 191.683594 103.472656 190.957031 L 103.472656 178.996094 L 91.464844 186.222656 C 88.390625 188.09375 85.191406 188.214844 82.472656 186.558594 C 79.503906 184.742188 77.648438 181.066406 77.648438 176.964844 C 77.648438 170.292969 80.53125 165.695312 87.296875 161.578125 L 152 122.167969 C 152.855469 121.652344 152.945312 120.792969 152.945312 120.445312 C 152.945312 120.09375 152.855469 119.238281 152 118.71875 C 151.089844 118.164062 150.78125 116.929688 151.304688 115.96875 C 151.824219 115.011719 152.996094 114.683594 153.90625 115.234375 C 155.695312 116.320312 156.757812 118.269531 156.757812 120.445312 C 156.757812 122.617188 155.695312 124.566406 153.90625 125.652344 L 89.203125 165.0625 C 83.554688 168.492188 81.460938 171.722656 81.460938 176.964844 C 81.460938 179.59375 82.605469 182 84.378906 183.082031 C 85.890625 184 87.6875 183.886719 89.5625 182.738281 L 104.433594 173.796875 C 105.027344 173.4375 105.75 173.445312 106.335938 173.800781 C 106.921875 174.160156 107.285156 174.832031 107.285156 175.542969 L 107.285156 187.414062 L 116.484375 181.597656 L 116.484375 167.503906 C 116.484375 164.714844 115.058594 162.121094 112.761719 160.742188 C 111.839844 160.1875 111.53125 158.960938 112.050781 157.996094 C 112.570312 157.03125 113.734375 156.699219 114.644531 157.25 C 118.128906 159.34375 120.300781 163.277344 120.300781 167.503906 L 120.300781 182.738281 C 120.300781 183.449219 119.945312 184.101562 119.367188 184.460938 L 106.359375 192.679688 C 106.054688 192.871094 105.714844 192.96875 105.378906 192.96875 Z M 105.378906 192.96875 " fill-opacity="1" fill-rule="nonzero"/><path fill="#56682c" d="M 71.371094 110.136719 C 71.0625 110.136719 70.746094 110.050781 70.453125 109.878906 L 11.953125 75.648438 C 11.035156 75.113281 10.699219 73.886719 11.214844 72.917969 C 11.714844 71.945312 12.875 71.589844 13.800781 72.128906 L 72.292969 106.363281 C 73.21875 106.902344 73.554688 108.125 73.039062 109.101562 C 72.695312 109.757812 72.042969 110.136719 71.371094 110.136719 Z M 71.371094 110.136719 " fill-opacity="1" fill-rule="nonzero"/></svg>